# 3ds Max Wavefront OBJ Exporter v0.99 - (c)2007 guruware
# File Created: 08.12.2022 05:23:43

mtllib 00.mtl

#
# object Box001
#

v  0.5000 0.5000 0.0000
v  -0.5000 0.5000 0.0000
v  -0.5000 -0.5000 -0.0000
v  0.5000 -0.5000 -0.0000
# 4 vertices

vn 0.0000 -0.0000 1.0000
# 1 vertex normals

vt 1.0000 1.0000 0.0000
vt 0.0000 1.0000 0.0000
vt 0.0000 0.0000 0.0000
vt 1.0000 0.0000 0.0000
# 4 texture coords

o Box001
g Box001
usemtl wire_085028177
s 4
f 1/1/1 2/2/1 3/3/1 
f 3/3/1 4/4/1 1/1/1 
# 2 faces

